<svg id="ERROR_ICON" data-name="ERROR ICON" xmlns="http://www.w3.org/2000/svg" width="52" height="52" viewBox="0 0 52 52">
  <g id="그룹_1176" data-name="그룹 1176" transform="translate(-934 -277)">
    <g id="그룹_1182" data-name="그룹 1182" transform="translate(1189.566 4.174)">
      <g id="그룹_1179" data-name="그룹 1179">
        <g id="그룹_1178" data-name="그룹 1178">
          <g id="패스_264" data-name="패스 264">
            <path id="패스_265" data-name="패스 265" d="M-229.953,284.826a1.612,1.612,0,0,1,1.612,1.612v13.815a1.613,1.613,0,0,1-1.613,1.613,1.613,1.613,0,0,1-1.612-1.613V286.438a1.612,1.612,0,0,1,1.612-1.612Z" fill="#d2d2d8"/>
          </g>
        </g>
      </g>
      <g id="그룹_1181" data-name="그룹 1181">
        <g id="그룹_1180" data-name="그룹 1180">
          <g id="타원_11" data-name="타원 11">
            <circle id="타원_13" data-name="타원 13" cx="1.612" cy="1.612" r="1.612" transform="translate(-231.565 309.004)" fill="#d2d2d8"/>
          </g>
        </g>
      </g>
    </g>
    <path id="패스_266" data-name="패스 266" d="M-229.565,272.826a26.029,26.029,0,0,0-26,26,26.029,26.029,0,0,0,26,26,26.029,26.029,0,0,0,26-26A26.029,26.029,0,0,0-229.565,272.826Zm0,50a24.027,24.027,0,0,1-24-24,24.027,24.027,0,0,1,24-24,24.028,24.028,0,0,1,24,24A24.027,24.027,0,0,1-229.565,322.826Z" transform="translate(1189.565 4.174)" fill="#d2d2d8"/>
  </g>
</svg>
