<svg xmlns="http://www.w3.org/2000/svg" width="17" height="19" viewBox="0 0 17 19">
  <path id="패스_298" data-name="패스 298" d="M47.685,1248.625a1.356,1.356,0,0,0-.53-.934,5.7,5.7,0,0,1-2.052-4.539v-2.277a5.834,5.834,0,0,0-5.276-5.811l-.118-.012v-.846a.521.521,0,0,0-.5-.511h-.015a.521.521,0,0,0-.515.511v.845l-.118.012a5.833,5.833,0,0,0-5.277,5.812v2.742a5.528,5.528,0,0,1-2.117,4.122,1.352,1.352,0,0,0-.473,1.03,1.375,1.375,0,0,0,1.358,1.363H36.13l.022.1a3.091,3.091,0,0,0,3.018,2.456h.048a3.09,3.09,0,0,0,3.016-2.454l.022-.1h4.066a1.379,1.379,0,0,0,1.047-.485A1.345,1.345,0,0,0,47.685,1248.625Zm-6.483,1.508-.061.172a2.11,2.11,0,0,1-1.2,1.226,2.076,2.076,0,0,1-2.7-1.226l-.062-.172Zm-9.478-1.363a.338.338,0,0,1,.124-.263,6.8,6.8,0,0,0,2.465-5.254v-2.379a4.879,4.879,0,0,1,4.817-4.825h.007v0h.12a4.878,4.878,0,0,1,4.816,4.825v2.379a6.8,6.8,0,0,0,2.467,5.255.334.334,0,0,1,.122.261.35.35,0,0,1-.348.343H32.07A.351.351,0,0,1,31.724,1248.77Z" transform="translate(-30.693 -1233.694)" fill="#666"/>
</svg>
