<svg xmlns="http://www.w3.org/2000/svg" xmlns:xlink="http://www.w3.org/1999/xlink" width="50" height="50" viewBox="0 0 50 50">
  <defs>
    <clipPath id="clip-path">
      <path id="패스_5347" data-name="패스 5347" d="M25,0A25,25,0,1,1,0,25,25,25,0,0,1,25,0Z" transform="translate(1169 108)" fill="#fbfbfb"/>
    </clipPath>
  </defs>
  <g id="그룹_12653" data-name="그룹 12653" transform="translate(20608 5564)">
    <g id="마스크_그룹_146" data-name="마스크 그룹 146" transform="translate(-21777 -5672)" clip-path="url(#clip-path)">
      <g id="그룹_12652" data-name="그룹 12652">
        <path id="패스_5345" data-name="패스 5345" d="M282.368,325.965a.536.536,0,0,1-.53-.505c0-8.286,7.5-15.036,16.711-15.036s16.71,6.75,16.71,15.047a.58.58,0,0,1-.489.475.59.59,0,0,1-.081.006.581.581,0,0,1-.57-.5c0-7.728-6.984-14.034-15.57-14.034s-15.572,6.306-15.572,14.058" transform="translate(895.385 -174.517)" fill="#e0dfe2" stroke="#e0dfe2" stroke-width="1"/>
        <path id="패스_5346" data-name="패스 5346" d="M312.06,285.318a7.447,7.447,0,1,1,7.448-7.448A7.456,7.456,0,0,1,312.06,285.318Zm0-13.845a6.4,6.4,0,1,0,6.4,6.4A6.4,6.4,0,0,0,312.06,271.473Z" transform="translate(881.873 -150.726)" fill="#e0dfe2" stroke="#e0dfe2" stroke-width="1"/>
      </g>
    </g>
    <g id="패스_5348" data-name="패스 5348" transform="translate(-20608 -5564)" fill="rgba(251,251,251,0)">
      <path d="M 25 49 C 21.75958061218262 49 18.61661911010742 48.36558151245117 15.65841960906982 47.1143684387207 C 12.80064010620117 45.9056282043457 10.23388004302979 44.17499923706055 8.029439926147461 41.97055816650391 C 5.824999809265137 39.76612091064453 4.094369888305664 37.19935989379883 2.885629892349243 34.34157943725586 C 1.634420037269592 31.38338088989258 1 28.24041938781738 1 25 C 1 21.75958061218262 1.634420037269592 18.61661911010742 2.885629892349243 15.65841960906982 C 4.094369888305664 12.80064010620117 5.824999809265137 10.23388004302979 8.029439926147461 8.029439926147461 C 10.23388004302979 5.824999809265137 12.80064010620117 4.094369888305664 15.65841960906982 2.885629892349243 C 18.61661911010742 1.634420037269592 21.75958061218262 1 25 1 C 28.24041938781738 1 31.38338088989258 1.634420037269592 34.34157943725586 2.885629892349243 C 37.19935989379883 4.094369888305664 39.76612091064453 5.824999809265137 41.97055816650391 8.029439926147461 C 44.17499923706055 10.23388004302979 45.9056282043457 12.80064010620117 47.1143684387207 15.65841960906982 C 48.36558151245117 18.61661911010742 49 21.75958061218262 49 25 C 49 28.24041938781738 48.36558151245117 31.38338088989258 47.1143684387207 34.34157943725586 C 45.9056282043457 37.19935989379883 44.17499923706055 39.76612091064453 41.97055816650391 41.97055816650391 C 39.76612091064453 44.17499923706055 37.19935989379883 45.9056282043457 34.34157943725586 47.1143684387207 C 31.38338088989258 48.36558151245117 28.24041938781738 49 25 49 Z" stroke="none"/>
      <path d="M 25 2 C 21.89414024353027 2 18.88224029541016 2.607841491699219 16.04798126220703 3.806629180908203 C 13.30939102172852 4.964958190917969 10.84946823120117 6.623619079589844 8.736541748046875 8.736541748046875 C 6.623619079589844 10.84946823120117 4.964958190917969 13.30939102172852 3.806629180908203 16.04798126220703 C 2.607841491699219 18.88224029541016 2 21.89414024353027 2 25 C 2 28.10585975646973 2.607841491699219 31.11775970458984 3.806629180908203 33.95201873779297 C 4.964958190917969 36.69060897827148 6.623619079589844 39.15052795410156 8.736541748046875 41.26345825195312 C 10.84946823120117 43.37638092041016 13.30939102172852 45.03504180908203 16.04798126220703 46.1933708190918 C 18.88224029541016 47.39215850830078 21.89414024353027 48 25 48 C 28.10585975646973 48 31.11775970458984 47.39215850830078 33.95201873779297 46.1933708190918 C 36.69060897827148 45.03504180908203 39.15052795410156 43.37638092041016 41.26345825195312 41.26345825195312 C 43.37638092041016 39.15052795410156 45.03504180908203 36.69060897827148 46.1933708190918 33.95201873779297 C 47.39215850830078 31.11775970458984 48 28.10585975646973 48 25 C 48 21.89414024353027 47.39215850830078 18.88224029541016 46.1933708190918 16.04798126220703 C 45.03504180908203 13.30939102172852 43.37638092041016 10.84946823120117 41.26345825195312 8.736541748046875 C 39.15052795410156 6.623619079589844 36.69060897827148 4.964958190917969 33.95201873779297 3.806629180908203 C 31.11775970458984 2.607841491699219 28.10585975646973 2 25 2 M 25 0 C 38.80712127685547 0 50 11.19287872314453 50 25 C 50 38.80712127685547 38.80712127685547 50 25 50 C 11.19287872314453 50 0 38.80712127685547 0 25 C 0 11.19287872314453 11.19287872314453 0 25 0 Z" stroke="none" fill="#e0dfe2"/>
    </g>
  </g>
</svg>
