<svg xmlns="http://www.w3.org/2000/svg" width="16.999" height="18" viewBox="0 0 16.999 18">
  <g id="trash" transform="translate(-17.066)">
    <g id="그룹_3129" data-name="그룹 3129" transform="translate(17.066)">
      <g id="그룹_3128" data-name="그룹 3128" transform="translate(0)">
        <path id="패스_2643" data-name="패스 2643" d="M33.411,2.571H28.835V1.929A1.945,1.945,0,0,0,26.873,0H24.258A1.945,1.945,0,0,0,22.3,1.929v.643H17.72a.643.643,0,1,0,0,1.286h.711l1.251,13.558a.65.65,0,0,0,.654.584H30.8a.65.65,0,0,0,.654-.584L32.7,3.857h.711a.643.643,0,1,0,0-1.286ZM23.6,1.929a.648.648,0,0,1,.654-.643h2.615a.648.648,0,0,1,.654.643v.643H23.6V1.929ZM30.2,16.714H20.932L19.747,3.857H31.388Z" transform="translate(-17.066 0)" fill="#d2d2d8"/>
      </g>
    </g>
    <g id="그룹_3131" data-name="그룹 3131" transform="translate(21.641 4.922)">
      <g id="그룹_3130" data-name="그룹 3130" transform="translate(0)">
        <path id="패스_2644" data-name="패스 2644" d="M138.453,146.255v0L137.8,137.1a.655.655,0,0,0-1.308.093l.654,9.153a.654.654,0,0,0,.654.607h.047A.654.654,0,0,0,138.453,146.255Z" transform="translate(-136.489 -136.49)" fill="#d2d2d8"/>
      </g>
    </g>
    <g id="그룹_3133" data-name="그룹 3133" transform="translate(24.912 4.924)">
      <g id="그룹_3132" data-name="그룹 3132">
        <path id="패스_2645" data-name="패스 2645" d="M222.52,136.533a.654.654,0,0,0-.654.654v9.153a.654.654,0,1,0,1.308,0v-9.153A.654.654,0,0,0,222.52,136.533Z" transform="translate(-221.866 -136.533)" fill="#d2d2d8"/>
      </g>
    </g>
    <g id="그룹_3135" data-name="그룹 3135" transform="translate(27.525 4.922)">
      <g id="그룹_3134" data-name="그룹 3134">
        <path id="패스_2646" data-name="패스 2646" d="M291.442,136.491a.655.655,0,0,0-.7.607l-.654,9.153a.654.654,0,0,0,.6.7h.05a.654.654,0,0,0,.654-.607l.654-9.153A.656.656,0,0,0,291.442,136.491Z" transform="translate(-290.086 -136.489)" fill="#d2d2d8"/>
      </g>
    </g>
  </g>
</svg>
